HIERARCHY
ROOT Hips
{
	OFFSET 0.717293 88.513641 3.606412
	CHANNELS 6 Xposition Yposition Zposition Zrotation Yrotation Xrotation 
	JOINT Spine
	{
		OFFSET -0.000000 8.814246 -2.080107
		CHANNELS 3 Zrotation Yrotation Xrotation
		JOINT Spine1
		{
			OFFSET -0.000000 8.844141 -0.000000
			CHANNELS 3 Zrotation Yrotation Xrotation
			JOINT Spine2
			{
				OFFSET 0.000000 11.682268 0.000000
				CHANNELS 3 Zrotation Yrotation Xrotation
				JOINT Spine3
				{
					OFFSET 0.000000 11.746700 -0.000000
					CHANNELS 3 Zrotation Yrotation Xrotation
					JOINT Neck
					{
						OFFSET 0.000000 17.658264 0.000000
						CHANNELS 3 Zrotation Yrotation Xrotation
						JOINT Neck1
						{
							OFFSET -0.000000 5.101515 -0.000000
							CHANNELS 3 Zrotation Yrotation Xrotation
							JOINT Head
							{
								OFFSET -0.000000 5.101515 -0.000000
								CHANNELS 3 Zrotation Yrotation Xrotation
								JOINT HeadEnd
								{
									OFFSET -0.000000 11.655085 -0.000000
									CHANNELS 3 Zrotation Yrotation Xrotation
									End Site
									{
										OFFSET 0.000000 0.000000 0.000000
									}
								}
							}
						}
					}
					JOINT RightShoulder
					{
						OFFSET -2.625389 11.175210 -0.000000
						CHANNELS 3 Zrotation Yrotation Xrotation
						JOINT RightArm
						{
							OFFSET 0.000000 10.434715 0.000000
							CHANNELS 3 Zrotation Yrotation Xrotation
							JOINT RightForeArm
							{
								OFFSET 0.000000 29.628420 0.000000
								CHANNELS 3 Zrotation Yrotation Xrotation
								JOINT RightHand
								{
									OFFSET 0.000000 22.857611 -0.000000
									CHANNELS 3 Zrotation Yrotation Xrotation
									JOINT RightHandThumb1
									{
										OFFSET -2.867323 3.959563 2.944291
										CHANNELS 3 Zrotation Yrotation Xrotation
										JOINT RightHandThumb2
										{
											OFFSET 0.000000 3.350399 -0.000000
											CHANNELS 3 Zrotation Yrotation Xrotation
											JOINT RightHandThumb3
											{
												OFFSET 0.000000 3.756509 -0.000000
												CHANNELS 3 Zrotation Yrotation Xrotation
												JOINT RightHandThumb4
												{
													OFFSET -0.000000 3.147345 -0.000000
													CHANNELS 3 Zrotation Yrotation Xrotation
													End Site
													{
														OFFSET 0.000000 0.000000 0.000000
													}
												}
											}
										}
									}
									JOINT RightHandIndex1
									{
										OFFSET -0.086752 10.030893 2.345280
										CHANNELS 3 Zrotation Yrotation Xrotation
										JOINT RightHandIndex2
										{
											OFFSET -0.000000 4.061090 -0.000000
											CHANNELS 3 Zrotation Yrotation Xrotation
											JOINT RightHandIndex3
											{
												OFFSET -0.000000 3.248873 0.000000
												CHANNELS 3 Zrotation Yrotation Xrotation
												JOINT RightHandIndex4
												{
													OFFSET -0.000000 2.639709 0.000000
													CHANNELS 3 Zrotation Yrotation Xrotation
													End Site
													{
														OFFSET 0.000000 0.000000 0.000000
													}
												}
											}
										}
									}
									JOINT RightHandMiddle1
									{
										OFFSET 0.104102 9.502952 0.006768
										CHANNELS 3 Zrotation Yrotation Xrotation
										JOINT RightHandMiddle2
										{
											OFFSET 0.000000 4.568727 -0.000000
											CHANNELS 3 Zrotation Yrotation Xrotation
											JOINT RightHandMiddle3
											{
												OFFSET 0.000000 3.654981 -0.000000
												CHANNELS 3 Zrotation Yrotation Xrotation
												JOINT RightHandMiddle4
												{
													OFFSET 0.000000 2.741236 0.000000
													CHANNELS 3 Zrotation Yrotation Xrotation
													End Site
													{
														OFFSET 0.000000 0.000000 0.000000
													}
												}
											}
										}
									}
									JOINT RightHandRing1
									{
										OFFSET 0.086752 8.921708 -2.267442
										CHANNELS 3 Zrotation Yrotation Xrotation
										JOINT RightHandRing2
										{
											OFFSET -0.000000 4.061090 -0.000000
											CHANNELS 3 Zrotation Yrotation Xrotation
											JOINT RightHandRing3
											{
												OFFSET -0.000000 3.654981 0.000000
												CHANNELS 3 Zrotation Yrotation Xrotation
												JOINT RightHandRing4
												{
													OFFSET -0.000000 2.741236 0.000000
													CHANNELS 3 Zrotation Yrotation Xrotation
													End Site
													{
														OFFSET 0.000000 0.000000 0.000000
													}
												}
											}
										}
									}
									JOINT RightHandPinky1
									{
										OFFSET -0.173504 7.976997 -4.467199
										CHANNELS 3 Zrotation Yrotation Xrotation
										JOINT RightHandPinky2
										{
											OFFSET -0.000000 3.350399 -0.000000
											CHANNELS 3 Zrotation Yrotation Xrotation
											JOINT RightHandPinky3
											{
												OFFSET -0.000000 2.842763 0.000000
												CHANNELS 3 Zrotation Yrotation Xrotation
												JOINT RightHandPinky4
												{
													OFFSET 0.000000 2.639709 -0.000000
													CHANNELS 3 Zrotation Yrotation Xrotation
													End Site
													{
														OFFSET 0.000000 0.000000 0.000000
													}
												}
											}
										}
									}
									JOINT RightForeArmEnd
									{
										OFFSET 0.000000 0.000000 0.000000
										CHANNELS 3 Zrotation Yrotation Xrotation
										End Site
										{
											OFFSET 0.000000 0.000000 0.000000
										}
									}
								}
								JOINT RightArmEnd
								{
									OFFSET 0.000000 0.000000 0.000000
									CHANNELS 3 Zrotation Yrotation Xrotation
									End Site
									{
										OFFSET 0.000000 0.000000 0.000000
									}
								}
							}
						}
					}
					JOINT LeftShoulder
					{
						OFFSET 2.625389 11.175210 -0.000000
						CHANNELS 3 Zrotation Yrotation Xrotation
						JOINT LeftArm
						{
							OFFSET 0.000000 10.813635 0.000000
							CHANNELS 3 Zrotation Yrotation Xrotation
							JOINT LeftForeArm
							{
								OFFSET -0.000000 28.724781 -0.000000
								CHANNELS 3 Zrotation Yrotation Xrotation
								JOINT LeftHand
								{
									OFFSET 0.644384 25.716167 -0.328871
									CHANNELS 3 Zrotation Yrotation Xrotation
									JOINT LeftHandThumb1
									{
										OFFSET 2.867323 3.959563 2.944291
										CHANNELS 3 Zrotation Yrotation Xrotation
										JOINT LeftHandThumb2
										{
											OFFSET 0.000000 3.350399 0.000000
											CHANNELS 3 Zrotation Yrotation Xrotation
											JOINT LeftHandThumb3
											{
												OFFSET 0.000000 3.756509 0.000000
												CHANNELS 3 Zrotation Yrotation Xrotation
												JOINT LeftHandThumb4
												{
													OFFSET -0.000000 3.100000 0.000000
													CHANNELS 3 Zrotation Yrotation Xrotation
													End Site
													{
														OFFSET 0.000000 0.000000 0.000000
													}
												}
											}
										}
									}
									JOINT LeftHandIndex1
									{
										OFFSET 0.086752 10.030893 2.345280
										CHANNELS 3 Zrotation Yrotation Xrotation
										JOINT LeftHandIndex2
										{
											OFFSET -0.000000 4.061090 -0.000000
											CHANNELS 3 Zrotation Yrotation Xrotation
											JOINT LeftHandIndex3
											{
												OFFSET -0.000000 3.248873 -0.000000
												CHANNELS 3 Zrotation Yrotation Xrotation
												JOINT LeftHandIndex4
												{
													OFFSET -0.000000 2.639709 -0.000000
													CHANNELS 3 Zrotation Yrotation Xrotation
													End Site
													{
														OFFSET 0.000000 0.000000 0.000000
													}
												}
											}
										}
									}
									JOINT LeftHandMiddle1
									{
										OFFSET -0.104102 9.502952 0.006768
										CHANNELS 3 Zrotation Yrotation Xrotation
										JOINT LeftHandMiddle2
										{
											OFFSET 0.000000 4.568727 -0.000000
											CHANNELS 3 Zrotation Yrotation Xrotation
											JOINT LeftHandMiddle3
											{
												OFFSET 0.000000 3.654981 0.000000
												CHANNELS 3 Zrotation Yrotation Xrotation
												JOINT LeftHandMiddle4
												{
													OFFSET 0.000000 2.741236 0.000000
													CHANNELS 3 Zrotation Yrotation Xrotation
													End Site
													{
														OFFSET 0.000000 0.000000 0.000000
													}
												}
											}
										}
									}
									JOINT LeftHandRing1
									{
										OFFSET -0.086752 8.921708 -2.267442
										CHANNELS 3 Zrotation Yrotation Xrotation
										JOINT LeftHandRing2
										{
											OFFSET -0.000000 4.061090 -0.000000
											CHANNELS 3 Zrotation Yrotation Xrotation
											JOINT LeftHandRing3
											{
												OFFSET 0.000000 3.654981 0.000000
												CHANNELS 3 Zrotation Yrotation Xrotation
												JOINT LeftHandRing4
												{
													OFFSET -0.000000 2.741236 -0.000000
													CHANNELS 3 Zrotation Yrotation Xrotation
													End Site
													{
														OFFSET 0.000000 0.000000 0.000000
													}
												}
											}
										}
									}
									JOINT LeftHandPinky1
									{
										OFFSET 0.173504 7.976997 -4.467199
										CHANNELS 3 Zrotation Yrotation Xrotation
										JOINT LeftHandPinky2
										{
											OFFSET 0.000000 3.350399 -0.000000
											CHANNELS 3 Zrotation Yrotation Xrotation
											JOINT LeftHandPinky3
											{
												OFFSET 0.000000 2.842763 0.000000
												CHANNELS 3 Zrotation Yrotation Xrotation
												JOINT LeftHandPinky4
												{
													OFFSET -0.000000 2.639709 -0.000000
													CHANNELS 3 Zrotation Yrotation Xrotation
													End Site
													{
														OFFSET 0.000000 0.000000 0.000000
													}
												}
											}
										}
									}
									JOINT LeftForeArmEnd
									{
										OFFSET 0.000000 0.000000 0.000000
										CHANNELS 3 Zrotation Yrotation Xrotation
										End Site
										{
											OFFSET 0.000000 0.000000 0.000000
										}
									}
								}
								JOINT LeftArmEnd
								{
									OFFSET 0.000000 0.000000 0.000000
									CHANNELS 3 Zrotation Yrotation Xrotation
									End Site
									{
										OFFSET 0.000000 0.000000 0.000000
									}
								}
							}
						}
					}
				}
			}
		}
	}
	JOINT RightUpLeg
	{
		OFFSET -11.289943 0.000000 -0.000000
		CHANNELS 3 Zrotation Yrotation Xrotation
		JOINT RightLeg
		{
			OFFSET 0.000000 -38.200325 -0.000000
			CHANNELS 3 Zrotation Yrotation Xrotation
			JOINT RightFoot
			{
				OFFSET -0.000000 -39.900856 -0.000000
				CHANNELS 3 Zrotation Yrotation Xrotation
				JOINT RightToeBase
				{
					OFFSET -0.000000 0.000000 15.261641
					CHANNELS 3 Zrotation Yrotation Xrotation
					JOINT RightToeBaseEnd
					{
						OFFSET 0.000000 0.000000 7.370709
						CHANNELS 3 Zrotation Yrotation Xrotation
						End Site
						{
							OFFSET 0.000000 0.000000 0.000000
						}
					}
				}
				JOINT RightLegEnd
				{
					OFFSET 0.000000 0.000000 0.000000
					CHANNELS 3 Zrotation Yrotation Xrotation
					End Site
					{
						OFFSET 0.000000 0.000000 0.000000
					}
				}
			}
			JOINT RightUpLegEnd
			{
				OFFSET 0.000000 0.000000 0.000000
				CHANNELS 3 Zrotation Yrotation Xrotation
				End Site
				{
					OFFSET 0.000000 0.000000 0.000000
				}
			}
		}
	}
	JOINT LeftUpLeg
	{
		OFFSET 11.315661 -0.000000 -0.000000
		CHANNELS 3 Zrotation Yrotation Xrotation
		JOINT LeftLeg
		{
			OFFSET 0.000000 -38.200325 0.000000
			CHANNELS 3 Zrotation Yrotation Xrotation
			JOINT LeftFoot
			{
				OFFSET 0.000000 -39.900856 0.000000
				CHANNELS 3 Zrotation Yrotation Xrotation
				JOINT LeftToeBase
				{
					OFFSET 0.000000 -0.000000 15.261641
					CHANNELS 3 Zrotation Yrotation Xrotation
					JOINT LeftToeBaseEnd
					{
						OFFSET -0.000000 0.000000 7.539996
						CHANNELS 3 Zrotation Yrotation Xrotation
						End Site
						{
							OFFSET 0.000000 0.000000 0.000000
						}
					}
				}
				JOINT LeftLegEnd
				{
					OFFSET 0.000000 0.000000 0.000000
					CHANNELS 3 Zrotation Yrotation Xrotation
					End Site
					{
						OFFSET 0.000000 0.000000 0.000000
					}
				}
			}
			JOINT LeftUpLegEnd
			{
				OFFSET 0.000000 0.000000 0.000000
				CHANNELS 3 Zrotation Yrotation Xrotation
				End Site
				{
					OFFSET 0.000000 0.000000 0.000000
				}
			}
		}
	}
}
MOTION
Frames: 4
Frame Time: 0.016667
8.185484 86.977150 9.131387 0.291936 0.081620 -12.854294 1.396091 -0.016476 8.186822 -0.185701 0.320187 0.734336 -1.608503 1.105122 7.013780 -1.315327 0.255171 4.389383 0.681028 0.355317 4.364839 0.347768 1.109632 -4.175815 -0.100836 -0.921243 -20.943823 0.000000 0.000000 0.000000 88.060188 0.236082 9.808578 62.220314 1.013291 9.016124 -0.467510 19.536613 91.020561 21.283396 46.541435 14.159390 9.624945 -1.766050 40.167667 -0.000002 0.000017 -23.728106 0.000006 0.000056 -16.261486 0.000001 0.000004 -0.000006 8.260204 0.167444 -1.910319 5.545343 -0.143607 0.287695 5.378637 -0.105423 0.215600 -0.000005 0.000023 -0.000001 8.628149 0.022568 -4.908320 5.320079 -0.061897 0.088395 5.525431 -0.028359 0.078438 -0.000003 0.000080 -0.000001 11.864091 -0.061503 -8.708514 6.768046 0.097949 -0.094534 6.820553 0.042170 -0.060855 0.000019 0.000565 -0.000001 13.858489 -0.175460 -14.041939 7.922996 0.243922 -0.028404 7.993162 0.124450 -0.076128 -0.000695 0.000005 -0.000007 0.000000 0.000000 0.000000 0.000000 0.000000 0.000000 -86.116058 -0.451000 4.239419 -70.499016 -3.619291 -5.744416 -0.673501 -17.101349 108.369415 -52.590744 -53.530052 36.941566 -8.426355 1.530792 40.753330 0.000010 0.000012 -21.004248 -0.000004 -0.000024 -14.481286 0.000500 0.000021 -0.000571 -5.630400 0.145277 -1.562700 -3.569262 -0.076727 -0.061764 -3.640910 -0.058328 -0.057398 0.000014 -0.000918 -0.000010 -6.951310 0.059713 -5.555117 -4.228597 -0.045453 -0.025622 -4.127078 -0.014310 -0.020844 -0.000580 0.000005 0.000036 -13.084169 -0.028929 -11.307591 -7.055803 0.089575 -0.009433 -6.711179 0.027495 -0.007145 0.000670 0.000017 0.000005 -17.516665 -0.236703 -17.843542 -10.295087 0.175557 -0.081686 -10.277234 0.072396 -0.096754 -0.000942 0.000002 -0.000037 0.000000 0.000000 0.000000 0.000000 0.000000 0.000000 -7.453547 -14.193508 20.703043 -0.158467 -1.062101 4.818942 2.482875 -10.129692 14.752491 -1.345375 1.173866 -16.763163 0.000000 0.000000 0.000000 0.000000 0.000000 0.000000 0.000000 0.000000 0.000000 2.267998 -0.517271 12.958938 0.110792 0.622590 10.162631 0.664469 3.458760 15.765431 0.719175 -0.751493 -19.530729 0.000000 0.000000 0.000000 0.000000 0.000000 0.000000 0.000000 0.000000 0.000000 
8.193700 86.970566 9.145914 0.284860 0.057541 -12.839914 1.386868 -0.014918 8.196260 -0.207472 0.328054 0.729179 -1.615670 1.095681 6.977895 -1.307347 0.256829 4.381557 0.699424 0.348303 4.418935 0.348616 1.111154 -4.130789 -0.092968 -0.920451 -20.894157 0.000000 0.000000 0.000000 88.021240 0.239714 9.826566 62.158031 1.167439 9.108793 -0.450172 19.560398 90.860229 21.187347 46.665215 14.141872 9.639323 -1.766202 40.162739 -0.000002 0.000017 -23.763321 0.000006 0.000056 -16.290243 0.000001 0.000004 -0.000006 8.363812 0.168856 -1.891509 5.628228 -0.142594 0.284065 5.465193 -0.104678 0.211993 -0.000005 0.000023 -0.000000 8.727156 0.023064 -4.871887 5.398247 -0.061550 0.086680 5.604834 -0.028086 0.077248 -0.000003 0.000082 -0.000001 11.943853 -0.062189 -8.643258 6.847251 0.097755 -0.093620 6.897190 0.042042 -0.060064 0.000019 0.000531 -0.000001 13.902036 -0.178414 -13.950650 7.985192 0.244418 -0.029559 8.057996 0.124517 -0.076098 -0.000691 0.000005 -0.000006 0.000000 0.000000 0.000000 0.000000 0.000000 0.000000 -86.099350 -0.459470 4.270427 -70.458832 -3.596853 -5.640215 -0.681550 -17.124258 108.223022 -52.334843 -53.809326 36.796032 -8.459678 1.533038 40.740303 0.000010 0.000011 -21.081783 -0.000001 -0.000024 -14.535868 0.000511 0.000021 -0.000629 -5.778514 0.146734 -1.631310 -3.693489 -0.075144 -0.053410 -3.765123 -0.056536 -0.050323 0.000014 -0.000916 -0.000010 -7.091612 0.060042 -5.573503 -4.347108 -0.044826 -0.022563 -4.247961 -0.013829 -0.018680 -0.000642 0.000005 0.000041 -13.223632 -0.029436 -11.263504 -7.165717 0.088851 -0.011575 -6.820823 0.026903 -0.009096 0.000654 0.000017 0.000005 -17.648575 -0.240886 -17.730734 -10.390532 0.173845 -0.086554 -10.368185 0.070862 -0.100736 -0.000943 0.000002 -0.000037 0.000000 0.000000 0.000000 0.000000 0.000000 0.000000 -7.476480 -14.186008 20.694464 -0.159509 -1.065929 4.820371 2.504735 -10.107964 14.755313 -1.342469 1.178777 -16.768936 0.000000 0.000000 0.000000 0.000000 0.000000 0.000000 0.000000 0.000000 0.000000 2.271117 -0.519082 12.946823 0.111137 0.621777 10.198089 0.647856 3.479397 15.731796 0.723479 -0.751548 -19.530081 0.000000 0.000000 0.000000 0.000000 0.000000 0.000000 0.000000 0.000000 0.000000 
8.200397 86.964066 9.160150 0.276655 0.026420 -12.827270 1.377178 -0.013094 8.206103 -0.228082 0.335747 0.723632 -1.619912 1.087754 6.944761 -1.299913 0.259535 4.374358 0.715800 0.341449 4.476955 0.347942 1.110543 -4.084087 -0.085213 -0.918879 -20.846987 0.000000 0.000000 0.000000 87.986656 0.243307 9.845621 62.092934 1.312783 9.196188 -0.434216 19.583878 90.688469 21.100750 46.774559 14.108226 9.658507 -1.766938 40.155399 -0.000002 0.000017 -23.810982 0.000007 0.000056 -16.327330 0.000001 0.000004 -0.000006 8.487486 0.170134 -1.876765 5.719883 -0.141606 0.280041 5.559615 -0.103931 0.208085 -0.000006 0.000023 -0.000000 8.844783 0.023483 -4.838443 5.485505 -0.061187 0.084806 5.693618 -0.027800 0.075898 -0.000003 0.000083 -0.000001 12.042404 -0.062836 -8.580431 6.935718 0.097485 -0.092442 6.983609 0.041878 -0.059083 0.000019 0.000499 -0.000001 13.962686 -0.181274 -13.861093 8.056389 0.244803 -0.029784 8.131792 0.124484 -0.075258 -0.000689 0.000005 -0.000006 0.000000 0.000000 0.000000 0.000000 0.000000 0.000000 -86.084396 -0.466828 4.300391 -70.421783 -3.582554 -5.531786 -0.689981 -17.149893 108.069252 -52.068897 -54.081757 36.633736 -8.493096 1.535470 40.726929 0.000009 0.000011 -21.160458 0.000001 -0.000024 -14.590987 0.000523 0.000021 -0.000678 -5.929150 0.148117 -1.701753 -3.817808 -0.073794 -0.045984 -3.889148 -0.055006 -0.043928 0.000014 -0.000915 -0.000010 -7.233264 0.060343 -5.594018 -4.465839 -0.044281 -0.019828 -4.369035 -0.013417 -0.016722 -0.000708 0.000005 0.000046 -13.362978 -0.029898 -11.219941 -7.275720 0.088267 -0.013337 -6.931088 0.026417 -0.010773 0.000640 0.000017 0.000005 -17.780874 -0.244909 -17.617983 -10.486665 0.172527 -0.090191 -10.460361 0.069637 -0.103799 -0.000944 0.000002 -0.000037 0.000000 0.000000 0.000000 0.000000 0.000000 0.000000 -7.497886 -14.177722 20.685854 -0.160484 -1.069480 4.821976 2.525020 -10.084527 14.759762 -1.339662 1.183537 -16.774733 0.000000 0.000000 0.000000 0.000000 0.000000 0.000000 0.000000 0.000000 0.000000 2.276135 -0.517780 12.939705 0.111481 0.621222 10.232228 0.631009 3.502185 15.696487 0.727614 -0.751709 -19.528669 0.000000 0.000000 0.000000 0.000000 0.000000 0.000000 0.000000 0.000000 0.000000 
8.205921 86.957619 9.174033 0.267134 -0.011185 -12.815954 1.367720 -0.011037 8.215876 -0.247448 0.343297 0.718186 -1.621427 1.081373 6.914574 -1.293152 0.263355 4.368252 0.730800 0.334883 4.538457 0.345929 1.108402 -4.036079 -0.077966 -0.916829 -20.802286 0.000000 0.000000 0.000000 87.955414 0.247050 9.865116 62.026070 1.449333 9.278026 -0.419637 19.607355 90.512871 21.021816 46.870750 14.063321 9.681926 -1.768206 40.145943 -0.000001 0.000017 -23.869532 0.000007 0.000057 -16.371695 0.000001 0.000004 -0.000006 8.628967 0.171304 -1.866176 5.818879 -0.140661 0.275574 5.660537 -0.103200 0.203808 -0.000006 0.000023 -0.000000 8.979125 0.023838 -4.808005 5.580308 -0.060818 0.082774 5.790159 -0.027511 0.074384 -0.000004 0.000084 -0.000000 12.157681 -0.063460 -8.519996 7.031677 0.097173 -0.091003 7.078046 0.041695 -0.057905 0.000019 0.000469 -0.000001 14.037690 -0.184130 -13.772865 8.134870 0.245167 -0.029106 8.212809 0.124425 -0.073682 -0.000689 0.000005 -0.000006 0.000000 0.000000 0.000000 0.000000 0.000000 0.000000 -86.070930 -0.472768 4.328625 -70.386765 -3.575770 -5.420412 -0.698777 -17.178772 107.910469 -51.796776 -54.341255 36.459064 -8.526276 1.538031 40.713413 0.000009 0.000011 -21.239269 0.000003 -0.000024 -14.645991 0.000534 0.000021 -0.000719 -6.080942 0.149435 -1.772979 -3.940794 -0.072654 -0.039325 -4.011730 -0.053718 -0.038079 0.000014 -0.000917 -0.000010 -7.374918 0.060625 -5.616089 -4.583375 -0.043812 -0.017363 -4.488865 -0.013065 -0.014922 -0.000776 0.000004 0.000052 -13.500340 -0.030330 -11.177077 -7.384281 0.087808 -0.014802 -7.040401 0.026023 -0.012232 0.000630 0.000017 0.000005 -17.911554 -0.248842 -17.505777 -10.581865 0.171577 -0.092788 -10.552155 0.068696 -0.106103 -0.000943 0.000002 -0.000038 0.000000 0.000000 0.000000 0.000000 0.000000 0.000000 -7.517508 -14.169338 20.676258 -0.161405 -1.072828 4.824185 2.543628 -10.059838 14.766573 -1.336995 1.188119 -16.780592 0.000000 0.000000 0.000000 0.000000 0.000000 0.000000 0.000000 0.000000 0.000000 2.282894 -0.514398 12.936382 0.111824 0.620921 10.265827 0.614107 3.526080 15.659707 0.731503 -0.751849 -19.527052 0.000000 0.000000 0.000000 0.000000 0.000000 0.000000 0.000000 0.000000 0.000000 
